# xmcd
#
# Track frame offsets:
#	150
#	17023
#	36984
#	59635
#	76315
#	96191
#	113562
#	132556
#	157637
#	175364
#	196640
#	217249
#
# Disc length: 3155 seconds
#
# Revision: 0
# Processed by: cddbd v1.5.2PL0 Copyright (c) Steve Scherf et al.
# Submitted via: dBpowerAMP V4.0
#
DISCID=9f0c510c
DTITLE=Jose Cabezas - Ancient Winds
DYEAR=2006
DGENRE=Country
TTITLE0=01 - Spring
TTITLE1=02 - Sumainca
TTITLE2=03 - To Be Loved
TTITLE3=04 - Indian Spirit
TTITLE4=05 - Alone
TTITLE5=06 - Huasian Rini
TTITLE6=07 - Inca Isnald
TTITLE7=08 - Sanza de Lobos
TTITLE8=09 - Little Bird
TTITLE9=10 - Latitude 0 0 0
TTITLE10=11 - Urcita Yallishpa
TTITLE11=12 - Gentle Hearl
EXTD=From Indian Powow
EXTT0=
EXTT1=
EXTT2=
EXTT3=
EXTT4=
EXTT5=
EXTT6=
EXTT7=
EXTT8=
EXTT9=
EXTT10=
EXTT11=
PLAYORDER=
